<svg width="1814" height="764" xmlns="http://www.w3.org/2000/svg" xmlns:xlink="http://www.w3.org/1999/xlink" xml:space="preserve" overflow="hidden"><g transform="translate(-230 -785)"><rect x="230.5" y="852.5" width="1796" height="679" stroke="#172C51" stroke-width="1.14583" stroke-miterlimit="8" fill="#F2F2F2"/><text font-family="Microsoft YaHei,Microsoft YaHei_MSFontService,sans-serif" font-weight="400" font-size="46" transform="matrix(1 0 0 1 820.843 1510)">Teacher</text><text font-family="Microsoft YaHei,Microsoft YaHei_MSFontService,sans-serif" font-weight="400" font-size="46" transform="matrix(1 0 0 1 992.718 1510)">-</text><text font-family="Microsoft YaHei,Microsoft YaHei_MSFontService,sans-serif" font-weight="400" font-size="46" transform="matrix(1 0 0 1 1012.77 1510)">Student Parallel</text><rect x="330.5" y="922.5" width="730" height="394" stroke="#172C51" stroke-width="4.58333" stroke-miterlimit="8" fill="#FFFFFF"/><path d="M364.5 1057.83C364.5 1032.8 384.797 1012.5 409.834 1012.5L606.166 1012.5C631.203 1012.5 651.5 1032.8 651.5 1057.83L651.5 1239.17C651.5 1264.2 631.203 1284.5 606.166 1284.5L409.834 1284.5C384.797 1284.5 364.5 1264.2 364.5 1239.17Z" stroke="#172C51" stroke-width="4.58333" stroke-miterlimit="8" fill="#DAE3F3" fill-rule="evenodd"/><path d="M403.5 1058.17C403.5 1049.51 410.514 1042.5 419.167 1042.5L596.833 1042.5C605.486 1042.5 612.5 1049.51 612.5 1058.17L612.5 1120.83C612.5 1129.49 605.486 1136.5 596.833 1136.5L419.167 1136.5C410.514 1136.5 403.5 1129.49 403.5 1120.83Z" stroke="#172C51" stroke-width="4.58333" stroke-miterlimit="8" fill="#2F5597" fill-rule="evenodd"/><text fill="#FFFFFF" font-family="Microsoft YaHei,Microsoft YaHei_MSFontService,sans-serif" font-weight="400" font-size="37" transform="matrix(1 0 0 1 451.468 1080)">model</text><text fill="#FFFFFF" font-family="Microsoft YaHei,Microsoft YaHei_MSFontService,sans-serif" font-weight="400" font-size="37" transform="matrix(1 0 0 1 443.745 1124)">parallel</text><path d="M404.5 1179.17C404.5 1170.51 411.514 1163.5 420.167 1163.5L597.833 1163.5C606.486 1163.5 613.5 1170.51 613.5 1179.17L613.5 1241.83C613.5 1250.49 606.486 1257.5 597.833 1257.5L420.167 1257.5C411.514 1257.5 404.5 1250.49 404.5 1241.83Z" stroke="#172C51" stroke-width="4.58333" stroke-miterlimit="8" fill="#2F5597" fill-rule="evenodd"/><text fill="#FFFFFF" font-family="Microsoft YaHei,Microsoft YaHei_MSFontService,sans-serif" font-weight="400" font-size="37" transform="matrix(1 0 0 1 452.597 1201)">model</text><text fill="#FFFFFF" font-family="Microsoft YaHei,Microsoft YaHei_MSFontService,sans-serif" font-weight="400" font-size="37" transform="matrix(1 0 0 1 444.874 1245)">parallel</text><path d="M702.5 1057.83C702.5 1032.8 722.797 1012.5 747.834 1012.5L944.166 1012.5C969.203 1012.5 989.5 1032.8 989.5 1057.83L989.5 1239.17C989.5 1264.2 969.203 1284.5 944.166 1284.5L747.834 1284.5C722.797 1284.5 702.5 1264.2 702.5 1239.17Z" stroke="#172C51" stroke-width="4.58333" stroke-miterlimit="8" fill="#DAE3F3" fill-rule="evenodd"/><path d="M741.5 1058.17C741.5 1049.51 748.514 1042.5 757.167 1042.5L934.833 1042.5C943.486 1042.5 950.5 1049.51 950.5 1058.17L950.5 1120.83C950.5 1129.49 943.486 1136.5 934.833 1136.5L757.167 1136.5C748.514 1136.5 741.5 1129.49 741.5 1120.83Z" stroke="#172C51" stroke-width="4.58333" stroke-miterlimit="8" fill="#2F5597" fill-rule="evenodd"/><text fill="#FFFFFF" font-family="Microsoft YaHei,Microsoft YaHei_MSFontService,sans-serif" font-weight="400" font-size="37" transform="matrix(1 0 0 1 789.399 1080)">model</text><text fill="#FFFFFF" font-family="Microsoft YaHei,Microsoft YaHei_MSFontService,sans-serif" font-weight="400" font-size="37" transform="matrix(1 0 0 1 781.676 1124)">parallel</text><path d="M742.5 1179.17C742.5 1170.51 749.514 1163.5 758.167 1163.5L935.833 1163.5C944.486 1163.5 951.5 1170.51 951.5 1179.17L951.5 1241.83C951.5 1250.49 944.486 1257.5 935.833 1257.5L758.167 1257.5C749.514 1257.5 742.5 1250.49 742.5 1241.83Z" stroke="#172C51" stroke-width="4.58333" stroke-miterlimit="8" fill="#2F5597" fill-rule="evenodd"/><text fill="#FFFFFF" font-family="Microsoft YaHei,Microsoft YaHei_MSFontService,sans-serif" font-weight="400" font-size="37" transform="matrix(1 0 0 1 790.528 1201)">model</text><text fill="#FFFFFF" font-family="Microsoft YaHei,Microsoft YaHei_MSFontService,sans-serif" font-weight="400" font-size="37" transform="matrix(1 0 0 1 782.805 1245)">parallel</text><path d="M520.156 994.126 523.672 988.859 531.516 982.798 540.615 977.083 550.94 971.683 562.37 966.645 574.784 962.015 588.06 957.842 602.077 954.173 616.71 951.06 631.839 948.551 647.34 946.696 663.09 945.547 678.965 945.152 694.838 945.525 710.585 946.61 726.083 948.362 741.209 950.731 755.841 953.671 769.854 957.135 783.128 961.076 795.54 965.448 806.969 970.205 817.292 975.304 826.39 980.701 834.261 986.445 837.024 990.785 835.09 992.015 832.444 987.858 832.735 988.168 825.083 982.584 825.174 982.644 816.161 977.297 816.238 977.339 805.987 972.276 806.054 972.307 794.689 967.576 794.749 967.599 782.394 963.247 782.449 963.264 769.228 959.339 769.279 959.353 755.315 955.901 755.364 955.912 740.782 952.982 740.83 952.991 725.753 950.629 725.802 950.636 710.353 948.89 710.403 948.895 694.707 947.813 694.759 947.815 678.939 947.444 678.994 947.444 663.174 947.837 663.229 947.834 647.533 948.98 647.586 948.975 632.137 950.823 632.188 950.816 617.111 953.316 617.162 953.307 602.58 956.409 602.631 956.397 588.668 960.052 588.721 960.036 575.5 964.192 575.557 964.173 563.202 968.781 563.264 968.756 551.899 973.765 551.968 973.732 541.717 979.092 541.795 979.047 532.782 984.709 532.873 984.645 525.221 990.558 525.473 990.287 522.062 995.398ZM535.357 997.418 510 1014.81 511.304 984.088ZM845.442 980.355 847.931 1011 821.922 994.604Z" fill="#4472C4"/><text font-family="Microsoft YaHei,Microsoft YaHei_MSFontService,sans-serif" font-weight="400" font-size="32" transform="matrix(1 0 0 1 601.393 996)">D</text><text font-family="Microsoft YaHei,Microsoft YaHei_MSFontService,sans-serif" font-weight="400" font-size="32" transform="matrix(1 0 0 1 626.029 996)">ata</text><text font-family="Microsoft YaHei,Microsoft YaHei_MSFontService,sans-serif" font-weight="400" font-size="32" transform="matrix(1 0 0 1 683.32 996)">P</text><text font-family="Microsoft YaHei,Microsoft YaHei_MSFontService,sans-serif" font-weight="400" font-size="32" transform="matrix(1 0 0 1 702.799 996)">arallel</text><text font-family="Microsoft YaHei,Microsoft YaHei_MSFontService,sans-serif" font-weight="400" font-size="48" transform="matrix(1 0 0 1 461.566 914)">Teacher Model GPU</text><rect x="1172.5" y="922.5" width="730" height="395" stroke="#172C51" stroke-width="4.58333" stroke-miterlimit="8" fill="#FFFFFF"/><path d="M1206.5 1058.83C1206.5 1033.8 1226.8 1013.5 1251.83 1013.5L1448.17 1013.5C1473.2 1013.5 1493.5 1033.8 1493.5 1058.83L1493.5 1240.17C1493.5 1265.2 1473.2 1285.5 1448.17 1285.5L1251.83 1285.5C1226.8 1285.5 1206.5 1265.2 1206.5 1240.17Z" stroke="#172C51" stroke-width="4.58333" stroke-miterlimit="8" fill="#DAE3F3" fill-rule="evenodd"/><path d="M1245.5 1058.17C1245.5 1049.51 1252.51 1042.5 1261.17 1042.5L1438.83 1042.5C1447.49 1042.5 1454.5 1049.51 1454.5 1058.17L1454.5 1120.83C1454.5 1129.49 1447.49 1136.5 1438.83 1136.5L1261.17 1136.5C1252.51 1136.5 1245.5 1129.49 1245.5 1120.83Z" stroke="#172C51" stroke-width="4.58333" stroke-miterlimit="8" fill="#2F5597" fill-rule="evenodd"/><text fill="#FFFFFF" font-family="Microsoft YaHei,Microsoft YaHei_MSFontService,sans-serif" font-weight="400" font-size="37" transform="matrix(1 0 0 1 1293.8 1080)">model</text><text fill="#FFFFFF" font-family="Microsoft YaHei,Microsoft YaHei_MSFontService,sans-serif" font-weight="400" font-size="37" transform="matrix(1 0 0 1 1286.08 1124)">parallel</text><path d="M1246.5 1179.17C1246.5 1170.51 1253.51 1163.5 1262.17 1163.5L1439.83 1163.5C1448.49 1163.5 1455.5 1170.51 1455.5 1179.17L1455.5 1241.83C1455.5 1250.49 1448.49 1257.5 1439.83 1257.5L1262.17 1257.5C1253.51 1257.5 1246.5 1250.49 1246.5 1241.83Z" stroke="#172C51" stroke-width="4.58333" stroke-miterlimit="8" fill="#2F5597" fill-rule="evenodd"/><text fill="#FFFFFF" font-family="Microsoft YaHei,Microsoft YaHei_MSFontService,sans-serif" font-weight="400" font-size="37" transform="matrix(1 0 0 1 1294.93 1201)">model</text><text fill="#FFFFFF" font-family="Microsoft YaHei,Microsoft YaHei_MSFontService,sans-serif" font-weight="400" font-size="37" transform="matrix(1 0 0 1 1287.21 1245)">parallel</text><path d="M1544.5 1058.83C1544.5 1033.8 1564.8 1013.5 1589.83 1013.5L1786.17 1013.5C1811.2 1013.5 1831.5 1033.8 1831.5 1058.83L1831.5 1240.17C1831.5 1265.2 1811.2 1285.5 1786.17 1285.5L1589.83 1285.5C1564.8 1285.5 1544.5 1265.2 1544.5 1240.17Z" stroke="#172C51" stroke-width="4.58333" stroke-miterlimit="8" fill="#DAE3F3" fill-rule="evenodd"/><path d="M1583.5 1058.17C1583.5 1049.51 1590.51 1042.5 1599.17 1042.5L1776.83 1042.5C1785.49 1042.5 1792.5 1049.51 1792.5 1058.17L1792.5 1120.83C1792.5 1129.49 1785.49 1136.5 1776.83 1136.5L1599.17 1136.5C1590.51 1136.5 1583.5 1129.49 1583.5 1120.83Z" stroke="#172C51" stroke-width="4.58333" stroke-miterlimit="8" fill="#2F5597" fill-rule="evenodd"/><text fill="#FFFFFF" font-family="Microsoft YaHei,Microsoft YaHei_MSFontService,sans-serif" font-weight="400" font-size="37" transform="matrix(1 0 0 1 1631.73 1080)">model</text><text fill="#FFFFFF" font-family="Microsoft YaHei,Microsoft YaHei_MSFontService,sans-serif" font-weight="400" font-size="37" transform="matrix(1 0 0 1 1624.01 1124)">parallel</text><path d="M1584.5 1179.17C1584.5 1170.51 1591.51 1163.5 1600.17 1163.5L1777.83 1163.5C1786.49 1163.5 1793.5 1170.51 1793.5 1179.17L1793.5 1241.83C1793.5 1250.49 1786.49 1257.5 1777.83 1257.5L1600.17 1257.5C1591.51 1257.5 1584.5 1250.49 1584.5 1241.83Z" stroke="#172C51" stroke-width="4.58333" stroke-miterlimit="8" fill="#2F5597" fill-rule="evenodd"/><text fill="#FFFFFF" font-family="Microsoft YaHei,Microsoft YaHei_MSFontService,sans-serif" font-weight="400" font-size="37" transform="matrix(1 0 0 1 1632.86 1201)">model</text><text fill="#FFFFFF" font-family="Microsoft YaHei,Microsoft YaHei_MSFontService,sans-serif" font-weight="400" font-size="37" transform="matrix(1 0 0 1 1625.14 1245)">parallel</text><path d="M1362.16 994.126 1365.67 988.859 1373.52 982.798 1382.61 977.083 1392.94 971.683 1404.37 966.645 1416.78 962.015 1430.06 957.842 1444.08 954.173 1458.71 951.06 1473.84 948.551 1489.34 946.696 1505.09 945.547 1520.96 945.152 1536.84 945.525 1552.59 946.61 1568.08 948.362 1583.21 950.731 1597.84 953.671 1611.85 957.135 1625.13 961.076 1637.54 965.448 1648.97 970.205 1659.29 975.304 1668.39 980.701 1676.26 986.445 1679.02 990.785 1677.09 992.015 1674.44 987.858 1674.74 988.168 1667.08 982.584 1667.17 982.644 1658.16 977.297 1658.24 977.339 1647.99 972.276 1648.05 972.307 1636.69 967.576 1636.75 967.599 1624.39 963.247 1624.45 963.264 1611.23 959.339 1611.28 959.353 1597.31 955.901 1597.36 955.912 1582.78 952.982 1582.83 952.991 1567.75 950.629 1567.8 950.636 1552.35 948.89 1552.4 948.895 1536.71 947.813 1536.76 947.815 1520.94 947.444 1520.99 947.444 1505.17 947.837 1505.23 947.834 1489.53 948.98 1489.59 948.975 1474.14 950.823 1474.19 950.816 1459.11 953.316 1459.16 953.307 1444.58 956.409 1444.63 956.397 1430.67 960.052 1430.72 960.036 1417.5 964.192 1417.56 964.173 1405.2 968.781 1405.26 968.756 1393.9 973.765 1393.97 973.732 1383.72 979.092 1383.8 979.047 1374.78 984.709 1374.87 984.645 1367.22 990.558 1367.47 990.287 1364.06 995.398ZM1377.36 997.418 1352 1014.81 1353.3 984.088ZM1687.44 980.355 1689.93 1011 1663.92 994.604Z" fill="#4472C4"/><text font-family="Microsoft YaHei,Microsoft YaHei_MSFontService,sans-serif" font-weight="400" font-size="32" transform="matrix(1 0 0 1 1443.73 997)">D</text><text font-family="Microsoft YaHei,Microsoft YaHei_MSFontService,sans-serif" font-weight="400" font-size="32" transform="matrix(1 0 0 1 1468.36 997)">ata</text><text font-family="Microsoft YaHei,Microsoft YaHei_MSFontService,sans-serif" font-weight="400" font-size="32" transform="matrix(1 0 0 1 1525.65 997)">P</text><text font-family="Microsoft YaHei,Microsoft YaHei_MSFontService,sans-serif" font-weight="400" font-size="32" transform="matrix(1 0 0 1 1545.13 997)">arallel</text><text font-family="Microsoft YaHei,Microsoft YaHei_MSFontService,sans-serif" font-weight="400" font-size="48" transform="matrix(1 0 0 1 1303.9 915)">Student Model GPU</text><path d="M0.0869186-1.14253 8.19554-0.525666 16.3616 1.31548 24.476 4.32871 32.5218 8.46856 40.4847 13.691 48.3518 19.954 56.1104 27.2168 63.7478 35.4401 71.2506 44.5848 78.605 54.6126 85.7968 65.4852 92.8117 77.1643 99.6347 89.6119 106.251 102.79 112.645 116.659 118.802 131.183 124.707 146.322 130.343 162.038 135.697 178.293 140.751 195.048 145.491 212.265 149.901 229.906 153.965 247.933 157.668 266.306 160.993 284.988 163.927 303.939 166.452 323.123 168.553 342.499 170.215 362.03 171.421 381.677 172.157 401.402 172.405 421.167 172.158 440.931 171.425 460.656 170.223 480.303 168.568 499.834 166.474 519.211 163.958 538.394 161.036 557.345 157.722 576.027 154.033 594.4 149.984 612.426 145.591 630.067 140.869 647.285 135.833 664.04 130.5 680.295 124.885 696.011 119.002 711.15 112.868 725.673 106.497 739.543 99.9058 752.72 93.1082 765.168 86.1195 776.847 78.9545 787.72 71.6274 797.747 64.1526 806.892 56.5436 815.115 48.8136 822.378 40.9756 828.642 32.9938 833.896 23.2666 837.744 22.4237 835.613 32.041 831.809 31.8324 831.917 39.6715 826.756 39.5862 826.818 47.3472 820.617 47.2779 820.677 54.9451 813.473 54.8887 813.53 62.4466 805.362 62.4005 805.415 69.8334 796.321 69.7954 796.37 77.0878 786.39 77.0562 786.435 84.1923 775.607 84.1658 775.649 91.1302 764.011 91.1077 764.05 97.8846 751.64 97.8655 751.677 104.439 738.534 104.423 738.569 110.778 724.733 110.764 724.765 116.884 710.273 116.872 710.304 122.743 695.195 122.732 695.225 128.337 679.538 128.327 679.566 133.652 663.339 133.643 663.367 138.67 646.639 138.663 646.665 143.377 629.474 143.371 629.501 147.757 611.885 147.751 611.911 151.795 593.911 151.789 593.936 155.473 575.589 155.468 575.614 158.777 556.958 158.773 556.983 161.692 538.057 161.688 538.083 164.2 518.926 164.197 518.952 166.288 499.601 166.285 499.628 167.938 480.123 167.937 480.15 169.137 460.53 169.135 460.557 169.867 440.86 169.866 440.888 170.114 421.152 170.114 421.181 169.865 401.445 169.866 401.474 169.132 381.776 169.133 381.804 167.928 362.184 167.93 362.211 166.271 342.706 166.274 342.733 164.175 323.383 164.178 323.409 161.656 304.251 161.66 304.277 158.731 285.351 158.735 285.377 155.414 266.721 155.418 266.746 151.721 248.398 151.726 248.424 147.668 230.423 147.674 230.449 143.271 212.834 143.278 212.861 138.545 195.67 138.553 195.696 133.507 178.968 133.516 178.996 128.171 162.769 128.181 162.797 122.555 147.11 122.566 147.14 116.673 132.031 116.686 132.062 110.542 117.57 110.557 117.603 104.178 103.766 104.194 103.801 97.5959 90.6586 97.6152 90.6953 90.813 78.2857 90.8355 78.3249 83.8451 66.6865 83.8717 66.7287 76.7089 55.9 76.7406 55.9455 69.421 45.9652 69.4592 46.0143 61.9984 36.9208 62.0447 36.9738 54.4585 28.8057 54.5151 28.8625 46.8192 21.6584 46.8886 21.7183 39.0986 15.5167 39.1838 15.5784 31.3155 10.418 31.4196 10.4787 23.4885 6.39785 23.6139 6.45315 15.6358 3.49053 15.7826 3.53414 7.77315 1.72829 7.93825 1.75305-0.0869186 1.14253ZM30.6801 848.872 0.637336 842.334 23.8934 822.222Z" fill="#4472C4" transform="matrix(1.83697e-16 1 1 -1.83697e-16 507 1284)"/><path d="M0.0881939-1.14243 8.08126-0.525384 16.1328 1.31673 24.1324 4.33119 32.0635 8.47223 39.9121 13.6957 47.6657 19.9594 55.3121 27.2228 62.8386 35.4463 70.2324 44.5912 77.4798 54.6191 84.5671 65.4916 91.4798 77.1706 98.2035 89.618 104.723 102.796 111.024 116.665 117.092 131.188 122.911 146.327 128.465 162.043 133.74 178.297 138.721 195.052 143.392 212.269 147.737 229.91 151.742 247.936 155.391 266.309 158.669 284.99 161.559 303.942 164.048 323.125 166.118 342.501 167.756 362.031 168.945 381.678 169.669 401.403 169.914 421.167 169.67 440.931 168.948 460.655 167.764 480.302 166.133 499.833 164.07 519.209 161.591 538.391 158.711 557.343 155.446 576.024 151.811 594.397 147.821 612.423 143.492 630.063 138.839 647.281 133.877 664.035 128.622 680.29 123.088 696.006 117.292 711.144 111.247 725.667 104.97 739.537 98.4746 752.714 91.7764 765.162 84.8898 776.841 77.8293 787.713 70.6092 797.741 63.2434 806.886 55.7451 815.109 48.1275 822.373 40.403 828.637 32.5336 833.894 23.2299 837.593 22.3832 835.464 31.5744 831.809 31.3612 831.921 39.0859 826.761 39.0007 826.824 46.6484 820.622 46.5794 820.683 54.1347 813.479 54.0787 813.536 61.5263 805.368 61.4806 805.421 68.8051 796.327 68.7676 796.377 75.9535 786.396 75.9223 786.442 82.9543 775.613 82.9283 775.655 89.7909 764.017 89.7689 764.056 96.4469 751.646 96.4281 751.683 102.906 738.541 102.89 738.575 109.152 724.738 109.138 724.771 115.17 710.279 115.157 710.309 120.943 695.201 120.932 695.23 126.455 679.543 126.446 679.571 131.692 663.344 131.684 663.371 136.638 646.643 136.63 646.669 141.276 629.478 141.27 629.504 145.593 611.889 145.587 611.915 149.571 593.914 149.565 593.939 153.196 575.592 153.191 575.617 156.452 556.961 156.448 556.986 159.323 538.06 159.32 538.085 161.796 518.928 161.793 518.953 163.853 499.603 163.85 499.629 165.479 480.125 165.477 480.151 166.66 460.531 166.659 460.558 167.38 440.861 167.379 440.888 167.623 421.153 167.623 421.181 167.378 401.445 167.379 401.473 166.655 381.776 166.656 381.803 165.469 362.183 165.471 362.209 163.836 342.705 163.838 342.731 161.77 323.381 161.774 323.407 159.288 304.249 159.292 304.275 156.405 285.349 156.409 285.374 153.136 266.718 153.141 266.743 149.497 248.395 149.502 248.421 145.503 230.42 145.509 230.446 141.17 212.83 141.177 212.856 136.513 195.666 136.52 195.692 131.548 178.964 131.556 178.991 126.29 162.764 126.299 162.792 120.755 147.105 120.766 147.134 114.959 132.026 114.971 132.056 108.917 117.565 108.931 117.597 102.645 103.761 102.661 103.795 96.1585 90.6526 96.1774 90.6891 89.4741 78.2795 89.4962 78.3186 82.6076 66.6802 82.6337 66.7223 75.5751 55.8936 75.6063 55.9391 68.3932 45.9587 68.4308 46.008 61.0786 36.9145 61.1244 36.9677 53.6486 28.7996 53.7047 28.8567 46.1207 21.6526 46.1898 21.7132 38.5131 15.5116 38.5984 15.5742 30.8444 10.4137 30.9489 10.4755 23.1332 6.3947 23.2595 6.45122 15.3974 3.4886 15.5459 3.53334 7.65289 1.72749 7.82025 1.75295-0.0881939 1.14243ZM30.7235 848.669 0.637336 842.334 23.7573 822.066Z" fill="#4472C4" transform="matrix(1.83697e-16 1 1 -1.83697e-16 845 1284)"/><text font-family="Microsoft YaHei,Microsoft YaHei_MSFontService,sans-serif" font-weight="400" font-size="37" transform="matrix(1 0 0 1 716.482 1416)">Broadcast Logits through IB / RoCE Network</text><text font-family="Microsoft YaHei,Microsoft YaHei_MSFontService,sans-serif" font-weight="400" font-size="48" transform="matrix(1 0 0 1 330.188 847)">Separate Mode: Deploy Teacher / Student Model to</text><text font-family="Microsoft YaHei,Microsoft YaHei_MSFontService,sans-serif" font-weight="400" font-size="48" transform="matrix(1 0 0 1 1536.75 847)">Dedicated Devices</text></g></svg>